<svg version="1.1" id="search_00000120521730982205003150000016789375713389220798_"
	 xmlns="http://www.w3.org/2000/svg" xmlns:xlink="http://www.w3.org/1999/xlink" x="0px" y="0px" viewBox="0 0 26.5 26.5"
	 enable-background="new 0 0 26.5 26.5" xml:space="preserve">
<path d="M9.6,0c5.3,0,9.6,4.3,9.6,9.6c0,2.2-0.7,4.2-2,5.8l8.9,8.9c0.4,0.4,0.4,1,0,1.4l-0.4,0.4c-0.4,0.4-1,0.4-1.4,0
	l-8.9-8.9c-1.6,1.2-3.6,2-5.8,2C4.3,19.3,0,15,0,9.6S4.3,0,9.6,0z M9.6,2.6c-3.9,0-7.1,3.2-7.1,7.1s3.2,7.1,7.1,7.1s7.1-3.2,7.1-7.1
	S13.5,2.6,9.6,2.6z" fill="#00543C"/>
</svg>
