<svg height="27" viewBox="0 0 27 27" width="27" xmlns="http://www.w3.org/2000/svg"><path d="m9.64285714 0c5.32560296 0 9.64285716 4.3172542 9.64285716 9.64285714 0 2.19921876-.7362188 4.22648436-1.9756417 5.84878216l8.8535998 8.8537585c.3905243.3905243.3905243 1.0236893 0 1.4142136l-.404061.404061c-.3905243.3905243-1.0236893.3905243-1.4142136 0l-8.8537585-8.8535998c-1.6222978 1.2394229-3.6495634 1.9756417-5.84878216 1.9756417-5.32560294 0-9.64285714-4.3172542-9.64285714-9.64285716 0-5.32560294 4.3172542-9.64285714 9.64285714-9.64285714zm0 2.57142857c-3.90544216 0-7.07142857 3.16598641-7.07142857 7.07142857s3.16598641 7.07142856 7.07142857 7.07142856 7.07142856-3.1659864 7.07142856-7.07142856-3.1659864-7.07142857-7.07142856-7.07142857z" fill="#00543c" fill-rule="evenodd"/></svg>