<svg height="20" viewBox="0 0 20 20" width="20" xmlns="http://www.w3.org/2000/svg"><path d="m1.63224181 9.20235097c.07612651-.81052337.26756228-1.5997761.57206829-2.34984607h2.04534005c-.15337251.76574307-.24965015 1.5549958-.28659389 2.34984607zm2.61740834 3.94290513h-2.04534005c-.30450601-.7489505-.49594178-1.5382032-.57206829-2.3487266h2.33081445c.03694374.7948503.13322138 1.584103.28659389 2.3487266zm4.95382032-2.3487266v2.3487266h-3.33837111c-.16232858-.7467115-.26532326-1.5348447-.30674504-2.3487266zm0 3.9440247v3.5309263c-1.16652673-.4030226-2.2043101-1.672544-2.8838511-3.5309263zm-4.53960257 0c.3168206.9728519.72208228 1.8382311 1.20458998 2.5804646-1.12062693-.6325217-2.08116429-1.5146936-2.81108312-2.5804646zm-1.60649314-9.48222786c.73215785-1.06801008 1.69269521-1.94906242 2.81220263-2.58158411-.4825077.74335293-.88776939 1.60873216-1.20458998 2.58158411zm6.14609571 1.59417856v2.34984607h-3.64511615c.04142178-.8138819.14441646-1.60313463.30674504-2.34984607zm0-5.12398545v3.52980689h-2.8838511c.679541-1.85950182 1.71732437-3.12790373 2.8838511-3.52980689zm4.47802963 13.01203475c-.679541 1.8583823-1.7173243 3.1279037-2.8838511 3.5309263v-3.5309263zm3.2622447 0c-.7299189 1.0646515-1.6915758 1.9479429-2.8144417 2.5815841.4858662-.745592.8911279-1.6120907 1.209068-2.5815841zm-6.1460958-5.53820323v-2.34984607h3.3361321c.1623286.73551637.2642038 1.5247691.3078646 2.34984607zm0-3.94402463v-3.52980689c1.1665268.40190316 2.2043101 1.67142457 2.8838511 3.52980689zm3.3338931-2.5804646c1.1206269.63252169 2.0811643 1.51469354 2.8122027 2.5804646h-1.6053737c-.3190596-.97509096-.7243213-1.8404702-1.206829-2.5804646zm-3.3338931 10.46739436v-2.3487266h3.6439967c-.0414218.8161209-.1444165 1.6042542-.3078646 2.3487266zm7.5712287-3.94290513h-2.331934c-.0369437-.79820879-.1332213-1.58746152-.2854743-2.34984607h2.04534c.304506.75342849.4970613 1.54268122.5720683 2.34984607zm-.002239 1.59417853c-.072768.8060454-.2642038 1.5952981-.5698293 2.3487266h-2.04534c.152253-.7612651.2485306-1.5505178.2854743-2.3487266zm1.5997761-1.59417853c-.3851106-4.87657431-4.2944305-8.78589421-9.1687658-9.16988525v-.03246572h-1.4542401l-.13993843.02239015v.01007557c-4.8765743.38399104-8.7858942 4.29331094-9.17100475 9.16988525h-.03246572v1.45424013l.02350966.1399384h.00895606c.38511055 4.8754548 4.29443045 8.7847747 9.17100475 9.1687658v.0347047h1.45424013l.1399384-.0246292v-.0100755c4.8743353-.3839911 8.7836552-4.293311 9.1687658-9.1687658h.0335852v-1.59417853z" fill="#00543c" fill-rule="evenodd"/></svg>